<svg width="18" height="18" viewBox="0 0 18 18" fill="none" xmlns="http://www.w3.org/2000/svg">
<path d="M0.428711 8.96664C0.428711 10.3646 0.771903 11.6787 1.39133 12.8506L2.83943 11.4025C3.03195 11.21 3.32492 11.21 3.51744 11.4025C3.70996 11.595 3.71833 11.888 3.51744 12.0889L1.89355 13.7128C2.10282 14.0057 2.31208 14.2903 2.55483 14.5498L14.5581 2.55483C14.2903 2.31208 13.9974 2.09445 13.7128 1.89355L12.0721 3.53418C11.8796 3.7267 11.5783 3.71833 11.3857 3.53418C11.1932 3.34165 11.1932 3.04869 11.3857 2.8478L12.8422 1.3997C11.6787 0.771903 10.3561 0.428711 8.95828 0.428711C4.2959 0.428711 0.428711 4.2959 0.428711 8.96664ZM10.7914 4.81487L9.64464 5.96163C9.45214 6.15415 9.15078 6.14579 8.95828 5.96163C8.77414 5.76911 8.76578 5.4594 8.95828 5.27525L10.1134 4.12849C10.3059 3.94434 10.6073 3.93597 10.7914 4.12849C10.9839 4.32101 10.9839 4.62235 10.7914 4.81487ZM8.37235 7.24233L7.21722 8.38907C7.03306 8.57321 6.73173 8.57321 6.5392 8.38907C6.34668 8.19657 6.34668 7.89521 6.5392 7.70271L7.686 6.55594C7.8785 6.36342 8.17985 6.36342 8.37235 6.55594C8.5565 6.7401 8.56485 7.05818 8.37235 7.24233ZM5.9449 9.66143L4.8065 10.8081C4.60561 11.0007 4.31264 10.9924 4.12012 10.8081C3.9276 10.6156 3.9276 10.3227 4.12012 10.1301L5.25851 8.975C5.45103 8.7825 5.75237 8.79085 5.9449 8.975C6.12905 9.16757 6.14579 9.46885 5.9449 9.66143ZM8.96664 17.5046C13.6374 17.5046 17.5046 13.6291 17.5046 8.96664C17.5046 7.57714 17.1614 6.2546 16.542 5.0911L15.0939 6.53083C14.893 6.73173 14.6084 6.72335 14.4159 6.53083C14.2317 6.33831 14.215 6.04534 14.4159 5.84445L16.0398 4.22893C15.8389 3.93597 15.6296 3.65137 15.3869 3.39188L3.38351 15.3869C3.65137 15.6212 3.93597 15.8389 4.22056 16.0398L5.86119 14.3991C6.06208 14.1899 6.35505 14.2066 6.54758 14.3991C6.7401 14.5916 6.74847 14.8763 6.54758 15.0771L5.08273 16.542C6.2546 17.1531 7.56878 17.5046 8.96664 17.5046ZM13.8132 7.80314L12.6748 8.95828C12.4823 9.15078 12.1809 9.14243 11.9884 8.95828C11.8043 8.75743 11.7959 8.46443 11.9884 8.27193L13.1352 7.12514C13.3277 6.93262 13.6207 6.93262 13.8132 7.12514C14.0141 7.30929 14.0057 7.61064 13.8132 7.80314ZM11.3941 10.2306L10.2474 11.369C10.0549 11.5699 9.7535 11.5699 9.561 11.369C9.37678 11.1849 9.36843 10.8751 9.561 10.6826L10.7161 9.54421C10.9003 9.36007 11.21 9.36007 11.3941 9.54421C11.5866 9.73671 11.5866 10.0297 11.3941 10.2306ZM8.975 12.6497L7.81993 13.7964C7.62735 13.9806 7.3344 13.989 7.14188 13.7964C6.94936 13.6039 6.94936 13.3026 7.14188 13.1101L8.28864 11.9633C8.48114 11.7708 8.7825 11.7875 8.975 11.9633C9.15921 12.1642 9.16757 12.4656 8.975 12.6497Z" fill="#CBEA7B"/>
</svg>
